<?xml version="1.0" encoding="UTF-8" standalone="no"?>
<svg
   xmlns:dc="http://purl.org/dc/elements/1.1/"
   xmlns:cc="http://creativecommons.org/ns#"
   xmlns:rdf="http://www.w3.org/1999/02/22-rdf-syntax-ns#"
   xmlns:svg="http://www.w3.org/2000/svg"
   xmlns="http://www.w3.org/2000/svg"
   xmlns:sodipodi="http://sodipodi.sourceforge.net/DTD/sodipodi-0.dtd"
   xmlns:inkscape="http://www.inkscape.org/namespaces/inkscape"
   inkscape:export-ydpi="325.12"
   inkscape:export-xdpi="325.12"
   inkscape:export-filename="C:\Users\Hypfer\Desktop\deerma_logo.png"
   sodipodi:docname="logo.svg"
   inkscape:version="1.0 (4035a4fb49, 2020-05-01)"
   id="svg1705"
   version="1.1"
   viewBox="0 0 100 45"
   height="45mm"
   width="100mm">
  <defs
     id="defs1699" />
  <sodipodi:namedview
     inkscape:window-maximized="1"
     inkscape:window-y="-8"
     inkscape:window-x="-8"
     inkscape:window-height="1537"
     inkscape:window-width="3840"
     fit-margin-bottom="0"
     fit-margin-right="0"
     fit-margin-left="0"
     fit-margin-top="0"
     showgrid="false"
     inkscape:document-rotation="0"
     inkscape:current-layer="layer1"
     inkscape:document-units="mm"
     inkscape:cy="126.44552"
     inkscape:cx="120.04748"
     inkscape:zoom="3.959798"
     inkscape:pageshadow="2"
     inkscape:pageopacity="0.0"
     borderopacity="1.0"
     bordercolor="#666666"
     pagecolor="#ffffff"
     id="base" />
  <metadata
     id="metadata1702">
    <rdf:RDF>
      <cc:Work
         rdf:about="">
        <dc:format>image/svg+xml</dc:format>
        <dc:type
           rdf:resource="http://purl.org/dc/dcmitype/StillImage" />
        <dc:title></dc:title>
      </cc:Work>
    </rdf:RDF>
  </metadata>
  <g
     transform="translate(-52.63332,-74.298325)"
     id="layer1"
     inkscape:groupmode="layer"
     inkscape:label="Layer 1">
    <g
       transform="translate(9.6511542,0.7923755)"
       id="g1643">
      <path
         style="fill:#1a2037;stroke-width:0.264583"
         id="Path-3_3_"
         class="st0"
         d="m 59.856593,108.42814 c 0.34396,-0.1323 0.68792,0.10583 0.71438,0.42333 v 8.01687 c 0,0.84667 -0.66146,1.53459 -1.48167,1.5875 h -11.72104 c -0.84667,0 -1.53459,-0.66145 -1.5875,-1.48166 v -8.01688 c 0,-0.21166 0.13229,-0.44979 0.34396,-0.50271 0.34395,-0.13229 0.68791,0.10584 0.71437,0.42334 v 7.99041 c 0,0.26459 0.21167,0.50271 0.47625,0.52917 h 11.69459 c 0.26458,0 0.5027,-0.21167 0.52916,-0.47625 v -7.96396 c 0,-0.21166 0.10584,-0.44979 0.3175,-0.52916 z" />
      <g
         id="g1590">
        <path
           d="m 51.786803,100.62293 c 0.79375,-0.740831 2.01083,-0.767289 2.80458,-0.0794 l 7.99042,7.51416 c 0.21167,0.21167 0.21167,0.52917 0.0265,0.74084 -0.18521,0.18521 -0.47625,0.21166 -0.68792,0.0529 l -7.96396,-7.4877 c -0.39687,-0.37042 -0.97896,-0.37042 -1.37583,-0.0529 l -7.99042,7.51416 c -0.21166,0.21167 -0.55562,0.18521 -0.74083,-0.0265 -0.18521,-0.18521 -0.18521,-0.50271 -0.0265,-0.68791 z"
           class="st0"
           id="Path-2_3_"
           style="fill:#1a2037;stroke-width:0.264583" />
        <path
           d="m 53.242013,110.99459 c 1.00542,0 1.93146,0.39688 2.59292,1.11125 0.21166,0.21167 0.1852,0.55563 -0.0265,0.74084 -0.21167,0.21166 -0.55563,0.18521 -0.74084,-0.0265 -0.47625,-0.50271 -1.13771,-0.7673 -1.82562,-0.7673 -0.66146,0 -1.29646,0.26459 -1.77271,0.71438 -0.21167,0.21167 -0.55563,0.18521 -0.74083,0 -0.18521,-0.18521 -0.18521,-0.55563 0,-0.74083 0.66145,-0.66146 1.56104,-1.03188 2.51354,-1.03188 z"
           class="st1"
           id="Path_15_"
           style="fill:#3996d4;stroke-width:0.264583" />
        <path
           d="m 53.242013,108.93084 c 1.42875,0 2.75167,0.58209 3.70417,1.56105 0.21166,0.21166 0.1852,0.55562 -0.0265,0.74083 -0.21167,0.21167 -0.55563,0.18521 -0.74084,-0.0265 -0.76729,-0.79375 -1.82562,-1.24354 -2.93687,-1.24354 -1.08479,0 -2.09021,0.42333 -2.83104,1.1377 -0.21167,0.21167 -0.55563,0.18521 -0.74084,0 -0.21166,-0.21166 -0.18521,-0.55562 0,-0.74083 0.92604,-0.89958 2.19604,-1.42875 3.57188,-1.42875 z"
           class="st1"
           id="Path_14_"
           style="fill:#3996d4;stroke-width:0.264583" />
        <path
           d="m 53.242013,106.86709 c 1.85208,0 3.57187,0.74084 4.81542,2.0373 0.21166,0.21166 0.1852,0.55562 -0.0265,0.74083 -0.21167,0.18521 -0.55563,0.18521 -0.74084,-0.0265 -1.05833,-1.08479 -2.51354,-1.71979 -4.04812,-1.71979 -1.48167,0 -2.8575,0.58208 -3.91584,1.5875 -0.21166,0.21166 -0.55562,0.1852 -0.74083,0 -0.21167,-0.21167 -0.18521,-0.55563 0,-0.74084 1.24354,-1.19062 2.88396,-1.87854 4.65667,-1.87854 z"
           class="st1"
           id="Path_13_"
           style="fill:#3996d4;stroke-width:0.264583" />
        <circle
           r="1.0583333"
           cy="114.27543"
           cx="53.242001"
           class="st1"
           id="Oval_7_"
           style="fill:#3996d4;stroke-width:0.264583" />
      </g>
    </g>
    <g
       transform="translate(9.6511542,0.7923755)"
       id="g1647">
      <path
         style="fill:#3996d4;stroke-width:0.264583"
         id="Rectangle_8_"
         class="st1"
         d="m 136.00367,112.37043 v 3.175 c 0,0.15875 -0.10583,0.26458 -0.26458,0.26458 h -0.52917 c -0.15875,0 -0.26458,-0.10583 -0.26458,-0.26458 v -3.175 c 0,-0.15875 0.10583,-0.26459 0.26458,-0.26459 h 0.52917 c 0.13229,0 0.26458,0.10584 0.26458,0.26459 z" />
      <path
         style="fill:#1a2037;stroke-width:0.264583"
         id="XMLID_77_"
         class="st0"
         d="m 129.20388,116.33918 c 0.0794,0.68791 0.58209,1.24354 1.24354,1.32291 v 0.39688 c 0,0.21167 0.18521,0.39687 0.39688,0.39687 h 0.3175 c 0.18521,0 0.34396,-0.15875 0.34396,-0.34395 v -0.37042 c 1.42875,0.10583 2.80458,0.18521 4.07458,0.18521 1.24354,0 2.54,-0.0529 3.86292,-0.15875 v 0.37041 c 0,0.18521 0.15875,0.34396 0.34396,0.34396 h 0.3175 c 0.21166,0 0.39687,-0.18521 0.39687,-0.39687 v -0.42334 c 0.66146,-0.0529 1.19063,-0.66145 1.24354,-1.40229 l 0.50271,-12.7 c 0.0265,-0.23812 0,-0.50271 -0.10583,-0.74083 l -0.23813,-0.55563 c -0.34396,-0.76728 -1.11125,-1.26999 -1.93146,-1.26999 h -8.99583 c -0.84667,0 -1.61396,0.50271 -1.93146,1.26999 l -0.23812,0.55563 c -0.0529,0.15875 -0.10584,0.58208 -0.10584,0.74083 z m 0.60854,-13.09688 0.29105,-0.635 c 0.1852,-0.34396 0.52916,-0.55562 0.92604,-0.55562 h 8.99583 0.0794 c 0.39688,0.0265 0.74083,0.26458 0.89958,0.635 l 0.23813,0.55562 0.0265,0.0529 c 0,0.0529 0.0265,0.0794 0,0.13229 0,0 0,0 0,0 v 0 c -0.0265,0.13229 -0.10583,0.23813 -0.21167,0.29104 -0.0265,0.0265 -0.0794,0.0265 -0.13229,0.0265 l -2.24896,0.15875 c -2.19604,0.1323 -4.39208,0.1323 -6.58812,-0.0265 l -2.01084,-0.15875 c -0.1852,-0.0265 -0.29104,-0.21166 -0.29104,-0.39687 0,0 0,-0.0265 0.0265,-0.0794 z m 10.58334,13.44084 -0.50271,0.0529 c -1.50813,0.13229 -2.91042,0.21166 -4.25979,0.21166 -1.50813,0 -3.14854,-0.0794 -4.92125,-0.23812 h -0.0529 c -0.18521,-0.0265 -0.34396,-0.18521 -0.34396,-0.42334 L 129.8389,104.8827 c 0.0794,0.0265 0.13229,0.0265 0.21167,0.0265 l 1.95791,0.13229 c 2.43417,0.18521 4.89479,0.18521 7.32896,0 l 1.66688,-0.13229 c 0.0794,0 0.13229,-0.0265 0.21166,-0.0265 l -0.44979,11.48292 c -0.0794,0.15875 -0.21167,0.3175 -0.37042,0.3175 z" />
    </g>
    <g
       transform="translate(9.6511542,0.7923755)"
       id="g1583">
      <path
         style="opacity:0.2;fill:#1a2037;stroke-width:0.264583;enable-background:new"
         id="XMLID_76_"
         class="st2"
         d="m 83.774923,99.220641 c -0.13229,0 -0.26458,-0.05292 -0.37041,-0.15875 -2.72521,-2.831042 -4.20688,-6.535209 -4.20688,-10.451042 0,-8.307917 6.77334,-15.08125 15.08125,-15.08125 8.307917,0 15.081247,6.773333 15.081247,15.08125 0,3.915833 -1.48166,7.62 -4.20687,10.424583 -0.21167,0.211667 -0.52917,0.211667 -0.74084,0.02646 -0.21166,-0.211667 -0.21166,-0.529167 -0.0265,-0.740834 2.51355,-2.619375 3.88938,-6.058958 3.88938,-9.710208 0,-7.725834 -6.29708,-14.022917 -14.022917,-14.022917 -7.72583,0 -14.02291,6.297083 -14.02291,14.022917 0,3.65125 1.40229,7.090833 3.91583,9.736667 0.21167,0.211666 0.18521,0.555625 -0.0265,0.740833 -0.0794,0.105833 -0.21167,0.132292 -0.34396,0.132292 z" />
      <g
         style="fill:#fb5700;fill-opacity:1"
         id="Group-9_2_"
         transform="matrix(0.26458333,0,0,0.26458333,-75.821737,32.466266)">
        <path
           style="fill:#fb5700;fill-opacity:1"
           id="Path_12_"
           class="st3"
           d="m 639.3,184 c -8.3,0.2 -15.1,6.4 -16.3,14.5 l -0.1,0.5 h -0.6 c -8,0 -14.5,6.5 -14.5,14.5 0,7.8 6.1,14.2 13.9,14.5 h 3.1 c 0.5,0 1,-0.2 1.4,-0.6 l 30.2,-30.2 c 0.9,-1.1 0.3,-2.7 -0.9,-3.2 h -0.1 l -0.1,-0.2 c -2.7,-5.9 -8.7,-9.8 -15.4,-9.8 z m 1,4 c 5,0.2 9.4,3.2 11.4,7.7 l 0.2,0.4 L 624,224 h -2.2 c -7.9,-0.3 -13.6,-9.6 -7.3,-18 0.1,-0.2 0.3,-0.4 0.5,-0.5 3.8,-2.7 7.9,-3.1 11.3,-1.7 0.3,0.1 0.6,-0.1 0.6,-0.4 l -0.1,-2.5 c 0,-7.1 5.8,-12.9 13,-12.9 z" />
        <path
           style="fill:#fb5700;fill-opacity:1"
           id="Line_3_"
           class="st3"
           d="m 663.4,184.8 c 0.8,-0.8 2,-0.8 2.8,0 0.7,0.7 0.8,1.9 0.2,2.6 l -50.2,50.2 c -0.8,0.8 -2,0.8 -2.8,0 -0.7,-0.7 -0.8,-1.9 -0.2,-2.6 z" />
        <path
           style="fill:#fb5700;fill-opacity:1"
           id="Path_11_"
           class="st3"
           d="m 662.4,200.3 c 0.3,-0.9 1.1,-1.4 2.1,-1.4 2.6,0 5.1,0.7 7.2,1.9 4.7,2.6 7.6,7.3 7.6,12.7 0,7.7 -6.2,14 -14,14.5 h -0.5 -25 c -0.8,0 -1.7,-0.5 -1.9,-1.3 -0.5,-1.3 0.4,-2.6 1.6,-2.7 h 25.2 c 5.9,-0.2 10.6,-4.9 10.6,-10.5 0,-3.8 -2.1,-7.3 -5.6,-9.1 -1.7,-0.9 -3.5,-1.4 -5.5,-1.4 -1.2,0 -2.2,-1.3 -1.8,-2.7 z" />
      </g>
    </g>
    <path
       d="m 136.63254,103.7701 -1.82562,-1.27 c -0.0794,-0.0529 -0.13229,-0.0794 -0.23813,-0.0794 -0.29104,-0.0529 -0.55562,0.15875 -0.60854,0.44979 l -0.0794,0.47625 c -19.65854,-2.64583 -40.348953,-2.67228 -60.033953,-0.0264 l -0.0794,-0.47625 c 0,-0.0794 -0.0529,-0.15875 -0.0794,-0.23813 -0.15875,-0.23812 -0.50271,-0.29104 -0.74083,-0.13229 l -1.82563,1.27 c -0.10583,0.0529 -0.15875,0.15875 -0.21167,0.26458 -0.0794,0.26459 0.0529,0.58209 0.34396,0.66146 l 2.11667,0.71438 c 0.0794,0.0265 0.15875,0.0265 0.23812,0.0265 0.29105,-0.0529 0.50271,-0.3175 0.4498,-0.60855 l -0.0529,-0.44979 c 19.552699,-2.61937 40.163743,-2.61937 59.716453,0.0265 l -0.0794,0.44979 c 0,0.0794 0,0.15875 0.0265,0.23813 0.0794,0.26458 0.39688,0.42333 0.66146,0.34396 l 2.11667,-0.68792 c 0.10583,-0.0265 0.21167,-0.10583 0.26458,-0.21167 0.23813,-0.23812 0.15875,-0.58208 -0.0794,-0.74083 z"
       class="st1"
       id="XMLID_73_"
       style="fill:#3996d4;stroke-width:0.264583" />
  </g>
</svg>
